<svg width="512" height="512" viewBox="0 0 512 512" fill="none" xmlns="http://www.w3.org/2000/svg">
<circle cx="255.317" cy="256.683" r="107.902" fill="#FFE145"/>
<path d="M242.163 35.0248C238.844 37.6248 236.331 40.8979 234.846 44.9959C233.388 49.0236 233.033 53.5393 233.514 58.5146C234.461 68.3056 238.767 80.9306 246.124 97.3968C249.784 105.59 261.356 105.59 265.017 97.3968C272.374 80.9306 276.679 68.3056 277.626 58.5146C278.107 53.5393 277.753 49.0236 276.294 44.9959C274.81 40.8979 272.297 37.6248 268.977 35.0248C261.275 28.9917 249.866 28.9917 242.163 35.0248Z" fill="#FFD600" stroke="#FFD600" stroke-width="11"/>
<path d="M404.426 80.8899C400.466 80.4126 396.586 80.9184 392.84 82.6587C389.159 84.3686 385.902 87.1326 382.908 90.7361C377.023 97.8195 371.509 108.954 365.501 124.545C362.269 132.935 370.465 141.132 378.855 137.899C394.447 131.891 405.581 126.378 412.664 120.492C416.268 117.498 419.032 114.241 420.742 110.56C422.482 106.814 422.988 102.934 422.51 98.9743C421.393 89.6995 413.701 82.0077 404.426 80.8899Z" fill="#FFD600" stroke="#FFD600" stroke-width="11"/>
<path d="M476.967 244.108C471.608 237.631 464.075 235.214 454.326 236.053C444.928 236.862 432.823 240.717 417.059 247.34C408.587 250.899 408.587 262.82 417.059 266.379C432.823 273.002 444.928 276.857 454.326 277.666C464.075 278.505 471.608 276.087 476.967 269.61C483.011 262.305 483.011 251.414 476.967 244.108Z" fill="#FFD600" stroke="#FFD600" stroke-width="11"/>
<path d="M422.051 405.528C422.98 397.332 419.56 390.454 412.32 384.398C405.386 378.597 394.515 373.136 379.313 367.168C370.889 363.861 362.626 372.124 365.933 380.548C371.901 395.75 377.362 406.621 383.163 413.555C389.219 420.795 396.097 424.215 404.293 423.286C413.453 422.248 421.013 414.688 422.051 405.528Z" fill="#FFD600" stroke="#FFD600" stroke-width="11"/>
<path d="M34.9691 244.135C40.271 237.643 47.7453 235.21 57.4143 236.054C66.7181 236.866 78.6876 240.732 94.2567 247.359C102.668 250.939 102.668 262.78 94.2567 266.36C78.6876 272.987 66.7181 276.852 57.4143 277.665C47.7453 278.509 40.271 276.075 34.9691 269.584C29.0103 262.287 29.0103 251.431 34.9691 244.135Z" fill="#FFD600" stroke="#FFD600" stroke-width="11"/>
<path d="M98.49 81.349C106.686 80.4201 113.563 83.8405 119.62 91.0802C125.42 98.0142 130.882 108.885 136.85 124.087C140.157 132.512 131.894 140.774 123.469 137.467C108.268 131.5 97.3964 126.038 90.4624 120.237C83.2227 114.181 79.8023 107.303 80.7312 99.1077C81.7694 89.9472 89.3294 82.3872 98.49 81.349Z" fill="#FFD600" stroke="#FFD600" stroke-width="11"/>
<path d="M268.924 477.1C272.246 474.564 274.78 471.354 276.281 467.313C277.755 463.34 278.109 458.892 277.624 454.009C276.669 444.41 272.342 432.061 264.976 415.992C261.276 407.921 249.864 407.921 246.165 415.992C238.799 432.061 234.472 444.41 233.517 454.009C233.031 458.892 233.385 463.34 234.86 467.313C236.36 471.354 238.895 474.564 242.217 477.1C249.898 482.967 261.242 482.967 268.924 477.1Z" fill="#FFD600" stroke="#FFD600" stroke-width="11"/>
<path d="M98.9102 423.153C102.848 423.654 106.714 423.179 110.446 421.465C114.113 419.78 117.347 417.039 120.307 413.466C126.122 406.448 131.53 395.403 137.394 379.948C140.566 371.59 132.429 363.454 124.071 366.625C108.617 372.489 97.5714 377.897 90.5529 383.712C86.98 386.672 84.2395 389.906 82.5547 393.573C80.8401 397.306 80.3652 401.171 80.8662 405.109C82.0374 414.315 89.7044 421.982 98.9102 423.153Z" fill="#FFD600" stroke="#FFD600" stroke-width="11"/>
</svg>
